# xmcd CD database file
#
# Track frame offsets:
#	150
#	15001
#	29512
#	38651
#	51648
#	68455
#	94760
#	113869
#	137250
#	160078
#
# Disc length: 2926 seconds
#
# Revision: 0
# Processed by: cddbd v1.5.2PL0 Copyright (c) Steve Scherf et al.
# Submitted via: CDex 1.51
#
DISCID=710b6c0a
DTITLE=The Best Of Jazz - The Best Of Jazz Cd2
DYEAR=2006
DGENRE=Jazz
TTITLE0=Duke Ellington - In a sentimental Mood
TTITLE1=The Benny Goodman Sextet Feat Peggy Lee - On the Sunny side of the street
TTITLE2=Peggy Lee - Let's do it (Let's Fall in love)
TTITLE3=Tony Bennet Ralph Rosario Trio - Steppin' OUt with my Baby
TTITLE4=Marcus roberts - The Entertainer
TTITLE5=Bud Powell - Squatty
TTITLE6=Ellis Marsalis - Louise
TTITLE7=Woody Shaw - Raashaan's Run
TTITLE8=Stanley Turrentine - Vera Cruz
TTITLE9=Dexter Gordon - Round Midnight ( live)
EXTD=YEAR: 2006
EXTT0=
EXTT1=
EXTT2=
EXTT3=
EXTT4=
EXTT5=
EXTT6=
EXTT7=
EXTT8=
EXTT9=
PLAYORDER=
